<?xml version="1.0" ?><svg fill="none" height="24" viewBox="0 0 24 24" width="24" xmlns="http://www.w3.org/2000/svg"><path clip-rule="evenodd" d="M3.75 19.0544C3.75 19.4696 4.0873 19.8058 4.50247 19.8044L19.5025 19.7549C19.9157 19.7536 20.25 19.4182 20.25 19.0049V17.9998C20.25 17.5856 20.5858 17.2498 21 17.2498C21.4142 17.2498 21.75 17.5856 21.75 17.9998V19.0049C21.75 20.2447 20.7472 21.2508 19.5074 21.2549L4.50742 21.3044C3.26188 21.3085 2.25 20.2999 2.25 19.0544V7.49999C2.25 6.25735 3.25736 5.24999 4.5 5.24999H8.18934L11.4697 1.96967C11.7626 1.67678 12.2374 1.67678 12.5303 1.96967L15.8107 5.24999H19.5C20.7426 5.24999 21.75 6.25735 21.75 7.49999V13.9998C21.75 14.414 21.4142 14.7498 21 14.7498C20.5858 14.7498 20.25 14.414 20.25 13.9998V7.49999C20.25 7.08578 19.9142 6.74999 19.5 6.74999H15.5C15.3011 6.74999 15.1103 6.67097 14.9697 6.53032L12 3.56066L9.03033 6.53032C8.88968 6.67097 8.69891 6.74999 8.5 6.74999H4.5C4.08579 6.74999 3.75 7.08578 3.75 7.49999V19.0544Z" fill="black" fill-rule="evenodd"/><path clip-rule="evenodd" d="M12 8.75C11.3096 8.75 10.75 9.30964 10.75 10C10.75 10.6904 11.3096 11.25 12 11.25C12.6904 11.25 13.25 10.6904 13.25 10C13.25 9.30964 12.6904 8.75 12 8.75ZM9.25 10C9.25 8.48122 10.4812 7.25 12 7.25C13.5188 7.25 14.75 8.48122 14.75 10C14.75 11.5188 13.5188 12.75 12 12.75C10.4812 12.75 9.25 11.5188 9.25 10Z" fill="black" fill-rule="evenodd"/><path clip-rule="evenodd" d="M8.83697 17.25H15.163C14.8245 15.8166 13.5368 14.75 12 14.75C10.4632 14.75 9.17555 15.8166 8.83697 17.25ZM7.25 18C7.25 15.3766 9.37665 13.25 12 13.25C14.6234 13.25 16.75 15.3766 16.75 18C16.75 18.4142 16.4142 18.75 16 18.75H8C7.58579 18.75 7.25 18.4142 7.25 18Z" fill="black" fill-rule="evenodd"/></svg>