<?xml version="1.0" ?><svg data-name="Layer 3" id="Layer_3" viewBox="0 0 24 24" xmlns="http://www.w3.org/2000/svg"><title/><path d="M22,16.5H18A1.5017,1.5017,0,0,0,16.5,18v4A1.5017,1.5017,0,0,0,18,23.5h4A1.5017,1.5017,0,0,0,23.5,22V18A1.5017,1.5017,0,0,0,22,16.5Zm.5,5.5a.5.5,0,0,1-.5.5H18a.5.5,0,0,1-.5-.5V18a.5.5,0,0,1,.5-.5h4a.5.5,0,0,1,.5.5Z"/><path d="M14,16.5H10A1.5017,1.5017,0,0,0,8.5,18v4A1.5017,1.5017,0,0,0,10,23.5h4A1.5017,1.5017,0,0,0,15.5,22V18A1.5017,1.5017,0,0,0,14,16.5Zm.5,5.5a.5.5,0,0,1-.5.5H10a.5.5,0,0,1-.5-.5V18a.5.5,0,0,1,.5-.5h4a.5.5,0,0,1,.5.5Z"/><path d="M6,16.5H2A1.5017,1.5017,0,0,0,.5,18v4A1.5017,1.5017,0,0,0,2,23.5H6A1.5017,1.5017,0,0,0,7.5,22V18A1.5017,1.5017,0,0,0,6,16.5ZM6.5,22a.5.5,0,0,1-.5.5H2a.5.5,0,0,1-.5-.5V18a.5.5,0,0,1,.5-.5H6a.5.5,0,0,1,.5.5Z"/><path d="M22,8.5H18A1.5017,1.5017,0,0,0,16.5,10v4A1.5017,1.5017,0,0,0,18,15.5h4A1.5017,1.5017,0,0,0,23.5,14V10A1.5017,1.5017,0,0,0,22,8.5Zm.5,5.5a.5.5,0,0,1-.5.5H18a.5.5,0,0,1-.5-.5V10a.5.5,0,0,1,.5-.5h4a.5.5,0,0,1,.5.5Z"/><path d="M14,8.5H10A1.5017,1.5017,0,0,0,8.5,10v4A1.5017,1.5017,0,0,0,10,15.5h4A1.5017,1.5017,0,0,0,15.5,14V10A1.5017,1.5017,0,0,0,14,8.5Zm.5,5.5a.5.5,0,0,1-.5.5H10a.5.5,0,0,1-.5-.5V10a.5.5,0,0,1,.5-.5h4a.5.5,0,0,1,.5.5Z"/><path d="M6,8.5H2A1.5017,1.5017,0,0,0,.5,10v4A1.5017,1.5017,0,0,0,2,15.5H6A1.5017,1.5017,0,0,0,7.5,14V10A1.5017,1.5017,0,0,0,6,8.5ZM6.5,14a.5.5,0,0,1-.5.5H2a.5.5,0,0,1-.5-.5V10A.5.5,0,0,1,2,9.5H6a.5.5,0,0,1,.5.5Z"/><path d="M22,.5H18A1.5017,1.5017,0,0,0,16.5,2V6A1.5017,1.5017,0,0,0,18,7.5h4A1.5017,1.5017,0,0,0,23.5,6V2A1.5017,1.5017,0,0,0,22,.5ZM22.5,6a.5.5,0,0,1-.5.5H18a.5.5,0,0,1-.5-.5V2a.5.5,0,0,1,.5-.5h4a.5.5,0,0,1,.5.5Z"/><path d="M14,.5H10A1.5017,1.5017,0,0,0,8.5,2V6A1.5017,1.5017,0,0,0,10,7.5h4A1.5017,1.5017,0,0,0,15.5,6V2A1.5017,1.5017,0,0,0,14,.5ZM14.5,6a.5.5,0,0,1-.5.5H10A.5.5,0,0,1,9.5,6V2a.5.5,0,0,1,.5-.5h4a.5.5,0,0,1,.5.5Z"/><path d="M6,.5H2A1.5017,1.5017,0,0,0,.5,2V6A1.5017,1.5017,0,0,0,2,7.5H6A1.5017,1.5017,0,0,0,7.5,6V2A1.5017,1.5017,0,0,0,6,.5ZM6.5,6a.5.5,0,0,1-.5.5H2A.5.5,0,0,1,1.5,6V2A.5.5,0,0,1,2,1.5H6a.5.5,0,0,1,.5.5Z"/></svg>